<?xml version="1.0" encoding="UTF-8"?>
<svg width="232px" height="49px" viewBox="0 0 232 49" version="1.1" xmlns="http://www.w3.org/2000/svg" xmlns:xlink="http://www.w3.org/1999/xlink">
    <title>bmo_brand</title>
    <g id="Screens" stroke="none" stroke-width="1" fill="none" fill-rule="evenodd">
        <g id="Home" transform="translate(-125.000000, -17.000000)">
            <g id="bmo_brand" transform="translate(125.000000, 17.000000)">
                <path d="M64.3257883,32 C55.4479741,31.9777069 48.3118764,24.827335 48.3320828,15.9744177 C48.3523752,7.09686906 55.5429141,-0.0266806784 64.456646,0 C73.2093121,0.0263661849 80.3618086,7.24664844 80.3280686,16.0218212 C80.2937572,24.896183 73.1570619,32.0221893 64.3257883,32" id="Path" fill="#FFFFFF"></path>
                <path d="M71.7631046,18.0990806 L71.832351,18.0668807 C71.832351,17.9688868 71.8322846,17.8708928 71.832351,17.7728325 C71.8328157,15.8366551 71.8387909,13.9004778 71.8253135,11.9643669 C71.8239856,11.7745534 71.7477681,11.5512786 71.6315165,11.4015656 C70.6553612,10.1440429 69.6614795,8.90026324 68.6735729,7.65190257 C68.2547085,7.12249621 67.8533715,7.12189868 67.4434699,7.65980317 C66.5991684,8.76781206 65.7407254,9.86572943 64.9247066,10.9942533 C64.5742255,11.4790445 64.0238394,11.4084703 63.7246126,10.999963 C62.88861,9.85849275 62.0089881,8.74889046 61.1464288,7.62687295 C60.7704534,7.13783266 60.3460121,7.13982441 59.9580861,7.63112201 C58.9579636,8.89780675 57.9524632,10.1603088 56.9639592,11.4359564 C56.8479067,11.5857358 56.7671082,11.8070853 56.7665107,11.9955046 C56.7549585,15.5357022 56.7580125,19.0759662 56.7580125,22.6162302 L56.7580125,22.9606696 L71.8707253,22.9606696 L71.8707253,18.1671984 L56.8022957,18.1671984 C57.8704033,16.7995321 58.8978128,15.4838504 59.9253551,14.1683678 C60.3784112,13.5884375 60.7334069,13.5902964 61.1824131,14.1754053 C62.0441092,15.2981531 62.9081955,16.4189756 63.764182,17.5459725 C63.9403852,17.7779446 64.1561578,17.9455833 64.4357991,17.8430083 C64.6254798,17.77343 64.8040731,17.6099739 64.9318769,17.4451901 C65.7925108,16.335787 66.6369452,15.2138358 67.4893465,14.0979264 C67.855828,13.6181809 68.2492644,13.6108778 68.6232481,14.0829883 C69.1450194,14.7417918 69.6572968,15.4080976 70.1746863,16.0703535 C70.7034951,16.7471491 71.2335654,17.4228825 71.7631046,18.0990806 M64.3257883,32 C55.4479741,31.9777069 48.3118764,24.827335 48.3320828,15.9744177 C48.3523752,7.09686906 55.5429141,-0.0266806784 64.456646,0 C73.2093121,0.0263661849 80.3618086,7.24664844 80.3280686,16.0218212 C80.2937572,24.896183 73.1570619,32.0221893 64.3257883,32" id="Fill-1" fill="#EE1C25"></path>
                <path d="M35.2863154,11.6724631 C36.5002188,11.7268378 37.6764782,11.8827916 38.7753251,12.4171773 C40.1553402,13.0883297 41.0147791,14.1843881 41.3710362,15.6702314 C41.6705286,16.918924 41.6640222,18.1747869 41.3193172,19.4105996 C40.8495968,21.0944226 39.7467001,22.2162409 38.0932181,22.7379458 C36.1524598,23.3502089 34.1871365,23.3548563 32.2668268,22.6503754 C30.3618535,21.9514049 29.347324,20.5119029 29.0787037,18.5277909 C28.9115961,17.2939036 28.9728091,16.0744233 29.4506956,14.9086537 C30.1343296,13.2408311 31.4522687,12.3358477 33.1571377,11.9606689 C33.8542492,11.807238 34.5758592,11.7652121 35.2863154,11.6724631 Z M16.6043454,12.1889298 C17.7500647,14.6066451 18.9051452,17.0199122 20.0584995,19.4340425 C20.1092227,19.5401362 20.1664522,19.6431095 20.2517654,19.807495 C21.33667,17.580921 22.3873166,15.4247884 23.4378968,13.2686558 C23.6218014,12.8912198 23.7974071,12.5092691 23.9959843,12.1396672 C24.0425912,12.0529598 24.1663451,11.9533725 24.2559073,11.9521774 C25.5499453,11.9345837 26.8441826,11.9325919 28.1383534,11.9286084 C28.1684952,11.928542 28.198637,11.9483267 28.2452439,11.9645926 L28.2452439,12.4442717 C27.9816693,12.4742807 27.7106589,12.4988456 27.4415739,12.5370207 C26.7969782,12.6285083 26.6275469,12.8222389 26.6274141,13.4609922 C26.6267502,16.1604734 26.626883,18.8599546 26.6274141,21.5594357 C26.6274805,22.0353305 26.7311177,22.193276 27.198116,22.3105236 C27.5277502,22.3933138 27.8706626,22.4232564 28.2372769,22.4815482 L28.2372769,22.9638166 L22.3248421,22.9638166 L22.3248421,22.4796893 C22.6929834,22.4220614 23.0564772,22.390459 23.4064936,22.3043491 C23.8745541,22.1891598 23.9758676,22.0320773 23.975934,21.5599669 C23.9761332,19.081636 23.9761996,16.6033715 23.9753365,14.1251071 C23.9753365,14.0217354 23.9657097,13.9183637 23.9556182,13.7150727 C23.8576243,13.909932 23.8034487,14.0134364 23.7528584,14.1187335 C22.3640795,17.0084265 20.9754335,19.8981195 19.5879161,22.7884101 C19.5014743,22.968464 19.4411243,23.1321192 19.1697156,23.1238867 C18.9076681,23.1159197 18.8690282,22.9407787 18.7930762,22.7791152 C17.4441324,19.9072152 16.097313,17.0343192 14.7496305,14.1618216 C14.6993057,14.0546656 14.6444663,13.9496342 14.5474018,13.7542438 C14.5298081,13.9376173 14.5138077,14.0273787 14.5137413,14.1171401 C14.5124135,16.6175793 14.5192518,19.1180186 14.5058407,21.6183251 C14.5037826,22.0027322 14.6811808,22.2109362 15.0097527,22.2882824 C15.4043178,22.3811642 15.8112981,22.4209991 16.2552585,22.4903783 C16.262296,22.6170534 16.2711261,22.7767915 16.2814168,22.9620904 L12.1776212,22.9620904 L12.1776212,22.4815482 C12.516019,22.4257129 12.8566077,22.3949072 13.1829887,22.3095941 C13.6461363,22.1884295 13.7441302,22.032874 13.7441966,21.5545228 L13.7441302,13.3231633 L13.7441302,13.3231633 C13.7440638,12.8691114 13.6448084,12.7148174 13.1908229,12.5988977 C12.8633133,12.5152443 12.5214631,12.4876918 12.167596,12.4322549 L12.167596,11.9487914 C13.0498736,11.9487914 13.9201343,11.9510488 14.790395,11.9479284 C15.2549368,11.9462686 15.7204081,11.9509824 16.1835556,11.922102 C16.4128057,11.9077615 16.5107997,11.9915476 16.6043454,12.1889298 Z M6.83268828,11.905544 C7.5750788,11.9184239 8.35119623,11.9822262 9.04817492,12.2142648 C10.5544004,12.7157203 10.9561358,14.7803653 9.83252491,15.918184 C9.18978814,16.5692197 8.36420898,16.7826022 7.49998993,16.9076839 C7.43592207,16.9169124 7.37105751,16.921095 7.23827437,16.9345061 C7.87118519,17.056401 8.45675883,17.1203361 9.01205791,17.2857839 C10.3873593,17.6953535 11.0415818,18.6002042 11.0184111,19.9680033 C10.9953068,21.3279018 10.2497959,22.3364561 8.91386478,22.6751195 C8.21396486,22.8525178 7.48047081,22.9678399 6.75992312,22.9803215 C5.66014679,22.9993427 4.56007169,23.0024963 3.45991361,23.0006871 L0.159406156,22.9912761 L0.159406156,22.9912761 C0.116583594,22.9912761 0.0738274242,22.9795248 0.00809977136,22.9699644 L0.00809977136,22.4940033 C0.350215524,22.4312633 0.690073964,22.3932209 1.01552543,22.3033267 C1.4574941,22.1812326 1.56372061,22.0248805 1.56411896,21.5665795 C1.56670823,18.7811212 1.56338866,15.9955966 1.56796967,13.2102047 C1.56850081,12.881832 1.41141836,12.6744911 1.11571031,12.6011284 C0.756465532,12.5120974 0.385668622,12.4696731 -1.24344979e-14,12.4036799 L-1.24344979e-14,11.9141085 L0.927556604,11.9139093 L0.927556604,11.9139093 C2.89600022,11.9066726 4.86490858,11.8713523 6.83268828,11.905544 Z M32.2372162,14.7246163 C32.03034,15.6106118 31.9849282,16.5342513 31.8835483,17.3086425 C31.9736416,18.2235847 32.0126799,18.9981088 32.1351059,19.7592217 C32.2648351,20.5654145 32.5600784,21.3190252 33.1935203,21.8828888 C33.8942833,22.5065712 34.742502,22.6366323 35.6409127,22.5751537 C36.717452,22.5013927 37.5292881,22.0114893 38.023175,21.0389856 C38.4481474,20.2021199 38.5529797,19.2934849 38.5977276,18.3726338 C38.6602021,17.0886209 38.6640528,15.8067989 38.3060695,14.558239 C37.9747091,13.4021626 37.2880211,12.5713385 36.046366,12.3564954 C34.2252453,12.0414674 32.7064718,12.7145452 32.2372162,14.7246163 Z M4.18353191,17.3334531 L4.18353191,22.4102171 C4.98169135,22.37171 5.75581704,22.3801418 6.51692998,22.2845379 C7.25785988,22.1913905 7.8073165,21.7692065 8.02342106,21.0200441 C8.25121053,20.2301836 8.2656175,19.427244 8.04247544,18.6335991 C7.89986635,18.1262348 7.56392501,17.7603508 7.06944061,17.5783052 C6.13318671,17.2336665 5.15875766,17.3644579 4.18353191,17.3334531 Z M4.18851128,12.47525 L4.18851128,16.7256382 C4.81292398,16.7256382 5.4001574,16.7496056 5.98466877,16.7199286 C6.82485407,16.6773052 7.42058562,16.2286974 7.62792649,15.5060915 C7.80233714,14.8982767 7.80565672,14.2809679 7.63197637,13.6710286 C7.49374913,13.1857726 7.19213223,12.836221 6.7120548,12.6558351 C5.88753791,12.3459856 5.0395184,12.49457 4.18851128,12.47525 Z" id="BMO" fill="#FFFFFF"></path>
                <path d="M178.245839,15.4004957 C179.642519,15.876988 180.357357,16.9293608 180.567951,18.3553853 C180.670526,19.0507706 180.65426,19.7452928 180.477127,20.4273334 C180.07247,21.9854771 179.007085,22.809662 177.469257,23.0829297 C177.112137,23.1464 176.74539,23.1557613 176.383091,23.1900857 C176.375921,23.21319 176.368684,23.2362942 176.361447,23.2594649 C175.707889,23.1195115 175.034877,23.0377834 174.405153,22.826791 C173.300066,22.4565253 172.612581,21.6458842 172.316275,20.5243978 C172.056684,19.541869 172.070029,18.5518379 172.385522,17.582853 C172.74085,16.4917739 173.479788,15.7487195 174.566485,15.3921304 C175.787094,14.9916565 177.030342,14.9857476 178.245839,15.4004957 Z M138.133587,15.1366756 C138.916543,15.1097206 139.679581,15.2140881 140.390104,15.5625775 C141.607858,16.1597696 142.194693,17.1946814 142.31599,18.497284 C142.368639,19.0632721 142.353302,19.6534268 142.254047,20.2122446 C141.997908,21.6532736 141.1311,22.5790376 139.712511,22.9660341 C138.586178,23.2732942 137.455198,23.2585553 136.344268,22.9109291 C135.199943,22.5528129 134.427211,21.7897083 134.091868,20.628055 C133.792973,19.5924129 133.792043,18.5446876 134.150823,17.5259089 C134.703799,15.9560139 135.934566,15.2980735 137.503797,15.1395968 C137.711735,15.1186171 137.923591,15.1366756 138.133587,15.1366756 Z M104.028623,15.099151 C104.401014,15.1244462 104.7744,15.1854601 105.139022,15.2672545 C106.055226,15.4727364 106.612052,16.0506086 106.675854,16.9785636 C106.743972,17.9691922 106.723723,18.966128 106.737665,19.9602753 L106.745034,21.4861527 L106.745034,21.4861527 C106.754528,22.1694547 106.910018,22.3413425 107.585353,22.424 C107.726634,22.4413282 107.869907,22.4423905 108.045048,22.4529467 L108.045048,22.9818884 C107.161575,22.9818884 106.284144,23.0022706 105.408373,22.9726599 C105.015269,22.9593152 104.772939,22.6972013 104.732573,22.3181055 C104.266172,22.5453638 103.824137,22.8262001 103.341736,22.9812245 C102.492057,23.2542266 101.618145,23.2485169 100.771918,22.93163 C99.9682479,22.630677 99.5870939,21.9950441 99.5289349,21.1730501 C99.4248329,19.7016801 100.005759,18.8543909 101.45834,18.5411555 C102.40203,18.337599 103.383829,18.3108432 104.348631,18.2057453 C104.45592,18.1940604 104.563673,18.187554 104.684373,18.1775289 C104.684373,17.6544297 104.729718,17.1436794 104.673418,16.6443484 C104.595076,15.9494943 104.05279,15.5879258 103.250713,15.6158102 C102.251985,15.650533 101.884109,16.0049976 101.835909,17.0066472 C101.820573,17.324862 101.672918,17.5120198 101.368114,17.5469418 C101.117752,17.5755566 100.859289,17.5855817 100.60979,17.5569005 C100.296023,17.5208499 100.131372,17.3208121 100.115504,16.9939 C100.079255,16.2484555 100.468243,15.6908991 101.250933,15.3892822 C102.150406,15.0426518 103.087988,15.035216 104.028623,15.099151 Z M213.4278,15.2583381 C214.818438,15.5971343 215.669777,16.5766091 215.828719,18.0019033 C215.862777,18.3071053 215.880039,18.6140999 215.909318,18.9726808 L210.254549,18.9726808 C210.220291,19.872021 210.21332,20.7402899 210.599918,21.5531883 C210.917203,22.220158 211.494876,22.5184553 212.201681,22.5519167 C213.61456,22.6188394 214.537469,22.1193092 214.890207,20.7046377 C214.937877,20.5135627 215.019671,20.4457105 215.206032,20.4618437 C215.336492,20.4731303 215.468744,20.4640346 215.651586,20.4640346 C215.540712,21.1569634 215.33762,21.7677658 214.877195,22.2714787 C214.353299,22.8445043 213.660503,23.0651235 212.922428,23.1339715 C212.061794,23.2143053 211.199566,23.2017573 210.364228,22.9233775 C209.369616,22.5918844 208.666662,21.9487493 208.315185,20.9553322 C207.916835,19.8293312 207.861465,18.6802923 208.224959,17.5383574 C208.617001,16.306329 209.495826,15.5760218 210.735622,15.2742721 C211.629054,15.0569061 212.53178,15.040109 213.4278,15.2583381 Z M222.045638,15.1012025 C222.385364,15.1250371 222.726683,15.1733702 223.058906,15.2477951 C224.142882,15.4905891 224.704355,16.1738911 224.718895,17.291062 C224.735493,18.5623942 224.725335,19.8339919 224.726862,21.1054568 C224.726928,21.1828694 224.727127,21.2602156 224.727725,21.3376281 C224.734165,22.2031086 224.931282,22.4048726 225.800812,22.4366742 C225.866938,22.4390643 225.932931,22.4437117 226.03783,22.4494214 L226.03783,23.0105629 C225.192864,23.0105629 224.355932,23.0390449 223.522253,23.0000066 C223.011171,22.9761057 222.817839,22.7491793 222.714733,22.2388937 C222.6099,22.3169038 222.517616,22.3885403 222.422211,22.4561269 C221.341091,23.2217545 220.145246,23.3399315 218.913218,22.9797572 C217.955387,22.6997176 217.509302,21.9475011 217.502403,20.8257492 C217.495824,19.746355 218.040766,18.9426851 219.127994,18.6420641 C219.876626,18.4351216 220.665424,18.3664063 221.439815,18.2624371 C221.843011,18.2082616 222.253842,18.2114484 222.733986,18.1846926 C222.702251,17.5995173 222.723032,17.0231057 222.626233,16.4671427 C222.527641,15.9010218 222.063564,15.642161 221.330269,15.6161356 C220.559529,15.5888486 220.049642,15.8708136 219.901456,16.4290339 C219.84821,16.6297356 219.830749,16.8431181 219.822517,17.0517204 C219.811761,17.3264487 219.684289,17.5011914 219.41713,17.5312003 C219.145389,17.5617405 218.864951,17.5847783 218.5958,17.5509186 C218.246912,17.5070338 218.101714,17.274265 218.106228,16.8772434 C218.113996,16.2066222 218.521707,15.6716389 219.236611,15.3943877 C220.146176,15.0415829 221.093716,15.0344126 222.045638,15.1012025 Z M196.205329,13.4700148 L196.205329,15.270023 L198.070733,15.270023 L198.070733,15.8577212 L196.242044,15.8577212 C196.233081,15.9789522 196.221263,16.0647301 196.221197,16.1504416 C196.219936,17.8318081 196.213894,19.5131746 196.221994,21.1944746 C196.227172,22.2796448 196.831402,22.6305907 197.807557,22.1297327 C197.934564,22.0645362 198.056127,21.988717 198.20843,21.9016112 C198.326208,22.053316 198.444584,22.2056846 198.578297,22.3779707 C197.610507,22.9817357 196.614766,23.3271046 195.483985,23.0822525 C194.684033,22.9091033 194.21179,22.3120439 194.199773,21.3815661 C194.177997,19.6893778 194.185499,17.9968575 194.180851,16.3044037 C194.180519,16.1730811 194.180785,16.0416922 194.180785,15.8589162 L192.9303,15.8589162 L192.9303,15.2787867 L194.180851,15.2787867 C194.180851,14.8078049 194.193466,14.3787826 194.175806,13.9510217 C194.16598,13.7136055 194.231907,13.619927 194.482468,13.6076445 C195.04361,13.5802248 195.603291,13.5202068 196.205329,13.4700148 Z M167.567851,11.6747138 C168.749621,11.6910461 169.931789,11.6819505 171.140182,11.6819505 L171.140182,12.1643516 C170.764273,12.2203197 170.390555,12.2529843 170.028389,12.3359074 C169.59379,12.435362 169.490152,12.593905 169.490152,13.0331517 L169.490086,21.5962034 L169.490086,21.5962034 C169.490152,22.0990531 169.610321,22.2649657 170.114764,22.362694 C170.44732,22.4270939 170.789303,22.4430278 171.146622,22.4828628 L171.146622,22.9764841 L165.518078,22.9764841 L165.518078,22.51088 C165.929241,22.4600241 166.326793,22.4366543 166.712661,22.356586 C167.18185,22.2591232 167.278583,22.1164477 167.278848,21.6473913 C167.280442,18.9922597 167.279911,16.3371281 167.278915,13.6820629 C167.278848,13.5973472 167.266765,13.512698 167.254084,13.3456568 C167.175078,13.4821578 167.130928,13.5480847 167.096869,13.6187917 C165.618926,16.6860158 164.141648,19.7535054 162.665697,22.8215926 C162.58835,22.9821938 162.536698,23.1304461 162.294435,23.1220808 C162.065982,23.1141138 162.027275,22.9632058 161.959224,22.8193353 C160.521647,19.7817882 159.085332,16.7435773 157.648486,13.7056319 C157.602676,13.6087666 157.554542,13.5129635 157.456017,13.4236669 C157.450307,13.5281008 157.439751,13.6324683 157.439684,13.7369023 L157.439286,21.6031081 L157.439286,21.6031081 C157.439419,22.0898911 157.529047,22.2305748 158.014635,22.3367349 C158.388752,22.4185957 158.776279,22.4387124 159.200853,22.4916265 L159.200853,22.967654 L155.061206,22.967654 L155.061206,22.4818005 C155.389579,22.4456835 155.719147,22.429152 156.040681,22.3695988 C156.560726,22.2733974 156.683684,22.1086799 156.683684,21.58817 C156.68375,18.7337973 156.683816,15.8794246 156.683551,13.0250519 C156.683551,12.5797636 156.588744,12.4339678 156.145049,12.3311272 C155.793705,12.2497975 155.430675,12.2193902 155.059812,12.164418 L155.059812,11.7000754 L155.754661,11.7006852 C155.868019,11.700636 155.980641,11.7003852 156.093263,11.6997434 C156.977997,11.6945649 157.862931,11.6982828 158.747133,11.6748466 C158.986409,11.668473 159.091706,11.7527239 159.190032,11.958073 C160.445031,14.5805399 161.709193,17.1986915 162.971297,19.8178388 C163.019033,19.9168951 163.069357,20.0145571 163.138803,20.1536474 C163.207651,20.0265075 163.264482,19.9308373 163.312749,19.830918 C164.577973,17.2132312 165.845322,14.5964739 167.101317,11.9742725 C167.206349,11.755114 167.316426,11.671195 167.567851,11.6747138 Z M93.3926743,11.6923009 C94.01795,11.6998031 94.6549108,11.7570327 95.2638542,11.893069 C96.6885509,12.2113502 97.166703,13.2585444 97.0226333,14.584716 C96.8993441,15.7192815 96.1511111,16.3237103 95.1254942,16.6429874 C94.8123252,16.7405166 94.4868073,16.7983437 94.1598952,16.8760218 C94.7146632,17.002033 95.2660451,17.09206 95.7951859,17.2546529 C96.9168051,17.5992915 97.5420809,18.3777327 97.6395437,19.5503406 C97.7420523,20.7846926 97.3107727,21.7583914 96.1953279,22.3783558 C95.286361,22.8835957 94.2890268,23.0032333 93.2778168,23.0164452 C92.2385232,23.0299891 91.1986321,22.9874321 90.1589401,22.9846436 C89.3516187,22.9825191 88.5442308,23.0042291 87.7368429,23.014387 C87.5621667,23.016578 87.3874905,23.014719 87.1733113,23.014719 L87.172731,22.7739783 C87.1728392,22.739312 87.1732006,22.7062859 87.1740416,22.6732672 C87.1754358,22.619158 87.1841995,22.5652481 87.1903075,22.5035703 C87.5364068,22.4570962 87.8773939,22.4310043 88.2095509,22.3618907 C88.7084171,22.2580543 88.8263286,22.0921418 88.8261958,21.5865036 L88.8246688,13.0580419 L88.8246688,13.0580419 C88.824536,12.6057161 88.7121351,12.4524844 88.2675771,12.3353032 C88.0978139,12.2905553 87.9210131,12.2700403 87.7462041,12.2477328 C87.5712623,12.2253588 87.3947936,12.214537 87.1948222,12.1965449 L87.1948222,11.7008654 C87.2580933,11.6955541 87.3215637,11.6855954 87.3851004,11.685529 C89.3876029,11.6841347 91.3903709,11.6683335 93.3926743,11.6923009 Z M149.753798,11.4496729 C150.384717,11.7125171 150.730418,12.236081 150.694832,12.8669337 C150.674981,13.2198049 150.5256,13.4048382 150.180563,13.4481919 C149.962732,13.4755452 149.736935,13.4785992 149.518772,13.455163 C149.19737,13.4207058 148.999258,13.2273736 148.948402,12.9026524 C148.917729,12.7063325 148.896417,12.5084856 148.876101,12.3107716 C148.843769,11.99581 148.710123,11.7637714 148.380953,11.6855622 C147.975633,11.5893608 147.55564,11.7096623 147.367287,12.0025819 C147.280181,12.1380207 147.190951,12.3033357 147.188162,12.4565674 C147.171697,13.3818003 147.179996,14.3074316 147.179996,15.2667898 L148.933132,15.2667898 C148.942161,15.4685537 148.949995,15.6386489 148.959489,15.8499069 L147.123298,15.8499069 L147.123696,21.6527956 L147.123696,21.6527956 C147.125621,22.1616869 147.284563,22.3497742 147.785886,22.4354194 C147.927432,22.4596523 148.070573,22.479105 148.213713,22.4889974 C148.343376,22.4978938 148.474167,22.4908563 148.621689,22.4908563 L148.621689,22.9908512 L143.69497,22.9908512 L143.69497,22.5115705 C143.931257,22.485545 144.171728,22.4680176 144.409144,22.4309047 C144.868242,22.3592682 145.056462,22.1664007 145.057524,21.738839 C145.061906,19.8250357 145.058785,17.9112323 145.057524,15.997429 C145.057524,15.9658266 145.046503,15.9342906 145.034818,15.8720817 L143.700082,15.8720817 L143.700082,15.2947406 L145.059914,15.2947406 C145.059914,14.9576706 145.032229,14.6500121 145.065956,14.3492583 C145.128032,13.7940256 145.145958,13.2148255 145.326941,12.6961746 C145.641969,11.793714 146.412111,11.3960285 147.309792,11.2443238 C148.138093,11.1043704 148.961614,11.1197068 149.753798,11.4496729 Z M230.205215,11.2599059 L230.205215,11.8863103 L230.205215,11.8863103 C230.207738,15.1278787 230.210327,18.3695134 230.212651,21.6111481 C230.213116,22.1768043 230.361302,22.352078 230.926958,22.4380551 C231.14439,22.4711181 231.36408,22.4898405 231.602824,22.5174594 L231.602824,22.9903666 L226.778149,22.9903666 L226.778149,22.5329951 C227.074587,22.4816744 227.368635,22.4440304 227.656111,22.3777052 C227.986343,22.3014877 228.14867,22.0975992 228.147873,21.7362962 C228.14057,18.6605076 228.140106,15.5846527 228.148338,12.5088641 C228.1494,12.1429801 227.979969,11.9467931 227.652659,11.8717706 C227.374013,11.8079019 227.088065,11.7765651 226.758298,11.7232527 C226.769584,11.572079 226.779875,11.433719 226.792821,11.2599059 L230.205215,11.2599059 Z M122.996695,11.2589963 L122.996695,19.0810518 C123.027965,19.0993758 123.059169,19.1176335 123.090307,19.1358912 C124.016469,18.0877011 124.942565,17.0395774 125.868595,15.9913873 C125.851333,15.9528138 125.834137,15.9142403 125.816876,15.8756004 L125.535661,15.8108367 C125.48868,15.801264 125.441542,15.7933413 125.394094,15.7886275 C124.998533,15.7493901 124.983529,15.7323938 125.082187,15.2954709 L128.519012,15.2954709 C128.525917,15.4237394 128.532822,15.5498834 128.541386,15.7065011 C128.223769,15.7319291 127.920227,15.7697059 127.616021,15.7772745 C127.205057,15.7874324 126.867522,15.938606 126.589474,16.2371689 C126.062856,16.8028251 125.534446,17.3667551 124.984923,17.9546524 C125.299154,18.3304287 125.594397,18.6843621 125.890504,19.0375653 C126.579516,19.8592273 127.270386,20.6794288 127.957805,21.5024851 C128.489535,22.1390474 128.553868,22.1798118 129.690956,22.5231226 L129.690956,22.964029 L125.50696,22.964029 L125.50696,22.5367329 C125.525616,22.5273053 125.552172,22.5097115 125.581385,22.499952 C125.741986,22.4462412 125.903251,22.3944558 126.064251,22.3420064 C125.983585,22.1912976 125.925094,22.0225302 125.818801,21.8928011 C125.132976,21.0558026 124.436794,20.2273686 123.726072,19.3746353 C123.347508,19.6519529 122.926784,19.8901658 123.01555,20.5126532 C123.071186,20.9028364 123.024181,21.3074266 123.026372,21.7055769 C123.029226,22.2190493 123.155769,22.3754678 123.662602,22.4562663 C123.890391,22.4925825 124.123559,22.4953046 124.381092,22.5153548 L124.381092,22.9901873 L119.598907,22.9901873 L119.598907,22.5331478 C119.882664,22.4810304 120.176978,22.4469051 120.459607,22.3701565 C120.85072,22.2639963 120.961859,22.101669 120.962059,21.7013942 C120.963187,18.6598637 120.96332,15.6183331 120.961992,12.5767362 C120.961793,12.1447262 120.837641,11.9827308 120.417515,11.8689357 C120.269395,11.8287688 120.114703,11.8097144 119.961737,11.7911911 C119.568898,11.743522 119.568632,11.7457793 119.605812,11.2589963 L122.996695,11.2589963 Z M116.52845,15.3669414 C117.336634,15.6418025 117.671912,16.3638108 117.696144,17.1778379 C117.738237,18.5928414 117.728145,20.0095047 117.736046,21.4254376 C117.740494,22.2248585 117.886555,22.3867212 118.68186,22.4493948 C118.812851,22.4597519 118.943708,22.4724327 119.083662,22.4848479 L119.083662,22.9861042 L114.415007,22.9861042 L114.415007,22.5476543 C114.689337,22.491819 114.971169,22.4501251 115.243574,22.3745715 C115.528128,22.2956983 115.676048,22.1066151 115.673857,21.7890643 C115.663633,20.3617783 115.675052,18.9342932 115.659981,17.50714 C115.650155,16.5775253 115.357568,16.1550094 114.650365,15.9677851 C113.888588,15.7661539 112.938325,16.0912071 112.598135,16.7540605 C112.392321,17.1551983 112.230923,17.6229933 112.211935,18.0677504 C112.159287,19.3048245 112.195537,20.5455502 112.187304,21.7847488 C112.18518,22.1083413 112.365101,22.2791004 112.637572,22.3607621 C112.890125,22.4364484 113.155227,22.4705073 113.461159,22.5322515 C113.46647,22.6524866 113.47291,22.7984817 113.48101,22.9817224 L108.759109,22.9817224 L108.759109,22.53099 C109.017837,22.4972631 109.270457,22.4770137 109.517765,22.4292118 C109.934107,22.3486788 110.108252,22.1777205 110.109978,21.7946411 C110.117879,20.0245755 110.111439,18.2543771 110.111837,16.4842451 C110.111904,16.1823627 109.941476,16.0044333 109.675512,15.9334607 C109.379405,15.8544547 109.072477,15.8162132 108.749482,15.7563944 L108.749482,15.2917198 L112.107037,15.2917198 L112.107037,16.3993967 C112.317033,16.2122389 112.463559,16.0722855 112.619712,15.9441497 C113.806196,14.9706502 115.150293,14.8982834 116.52845,15.3669414 Z M189.566279,15.3284476 C190.191355,15.5258961 190.580609,15.9929608 190.727003,16.62627 C190.810922,16.9892327 190.852284,17.3690589 190.856865,17.7419803 C190.872599,19.0142419 190.86357,20.2868355 190.864035,21.5592299 C190.8643,22.1781321 191.04867,22.3780371 191.679589,22.4395821 C191.854066,22.4565784 192.029074,22.4675994 192.22161,22.482803 L192.22161,22.9720425 L187.539809,22.9720425 L187.539809,22.5499249 C187.833393,22.4885127 188.115424,22.4425034 188.389953,22.3684104 C188.652266,22.2975706 188.807224,22.1072259 188.806029,21.834091 C188.799589,20.3078816 188.809149,18.7810083 188.76407,17.2557285 C188.72948,16.0841828 187.841426,15.780707 186.90245,15.9659394 C185.973897,16.1491802 185.409503,16.8127639 185.355792,17.8221149 C185.301816,18.8373748 185.320472,19.8564854 185.30892,20.8740025 C185.305866,21.1505898 185.305534,21.4272435 185.309251,21.7038308 C185.314696,22.1029769 185.430682,22.2696861 185.812035,22.3753151 C186.055692,22.4427689 186.308909,22.4757655 186.58636,22.5297419 L186.58636,22.9735695 L181.865919,22.9735695 L181.865919,22.5327959 C182.118937,22.5003304 182.370362,22.4790851 182.617339,22.4340052 C183.084669,22.3486257 183.239494,22.1590777 183.23976,21.6888927 L183.239893,16.6101368 L183.239893,16.6101368 C183.239627,16.169828 183.131874,16.0139406 182.701391,15.9030002 C182.436223,15.8346833 182.159768,15.8099857 181.857753,15.7606567 L181.857753,15.2941896 L185.223872,15.2941896 L185.223872,16.3559899 C185.626138,16.0590204 185.96042,15.7453203 186.350935,15.5366516 C187.381399,14.9859335 188.47447,14.9835434 189.566279,15.3284476 Z M205.777267,15.1951798 C206.77573,15.4492603 206.9601,16.4151913 206.738817,17.1413823 C206.684641,17.3191125 206.436403,17.4904691 206.240548,17.5580557 C206.034136,17.6293603 205.779724,17.5991521 205.553329,17.5656908 C205.277671,17.5249263 205.097551,17.3415528 205.055591,17.0585256 C205.026512,16.8626704 205.029898,16.6623007 205.009914,16.4648522 C204.957796,15.9505831 204.644295,15.743707 204.187322,15.9910155 C203.933507,16.1282469 203.699543,16.3754891 203.556403,16.6293705 C203.196295,17.2677918 203.100824,17.9854183 203.093787,18.7098167 C203.084226,19.6829179 203.090401,20.6561519 203.091861,21.6292531 C203.092592,22.1289161 203.230288,22.302862 203.717403,22.409354 C203.856891,22.4398942 204.001891,22.4464669 204.144699,22.4603428 C204.274362,22.4729572 204.404555,22.4806586 204.554335,22.4920115 L204.554335,22.9720226 L199.656562,22.9720226 L199.656562,22.5015055 C199.928436,22.4623345 200.203762,22.4443424 200.467535,22.3798098 C200.912359,22.2709276 201.027017,22.1099281 201.027216,21.6530877 C201.027947,19.9723851 201.026818,18.2916826 201.023631,16.61098 C201.022768,16.1426539 200.889653,15.9677121 200.43819,15.8680584 C200.191944,15.8138164 199.938063,15.7940318 199.649259,15.7532673 C199.641492,15.6172974 199.632927,15.469377 199.622769,15.2923107 L203.015777,15.2923107 L203.015777,16.4473912 C203.247218,16.1789037 203.4205,15.9392965 203.631758,15.739989 C204.241763,15.1646397 204.969282,14.9895651 205.777267,15.1951798 Z M176.37612,15.654421 C175.424928,15.658095 174.780863,16.1124125 174.59656,17.011288 C174.455744,17.697976 174.415444,18.4053117 174.328604,19.1185564 C174.418498,19.8521832 174.469553,20.590723 174.608245,21.3124657 C174.755236,22.077363 175.365242,22.570586 176.113475,22.6360481 C177.084916,22.7210293 177.753015,22.4024825 178.064126,21.6157424 C178.227382,21.202986 178.320928,20.7442203 178.349012,20.3001271 C178.41859,19.1994213 178.481197,18.0922755 178.20388,17.0050472 C177.975161,16.1082299 177.350283,15.6507256 176.37612,15.654421 Z M138.129205,15.6544631 C137.155042,15.6549281 136.472271,16.12186 136.328732,17.0628941 C136.189974,17.9730562 136.17736,18.9063888 136.164812,19.8302939 C136.158305,20.3097074 136.22961,20.8007394 136.339886,21.2690656 C136.560904,22.2076432 137.1893,22.6551224 138.174484,22.6442341 C139.1199,22.6337443 139.763301,22.1513431 139.942359,21.2247824 C140.075673,20.5350404 140.115774,19.8273063 140.197435,19.1275391 C140.116703,18.4245188 140.08218,17.7268762 139.947737,17.0489519 C139.763168,16.1180757 139.112464,15.6539987 138.129205,15.6544631 Z M104.678862,18.7712023 C103.866429,18.8153527 103.084071,18.8478846 102.409997,19.2665498 C102.148215,19.4292091 101.920027,19.7300293 101.800257,20.0190982 C101.580501,20.5495005 101.581961,21.1215302 101.769385,21.674904 C101.907479,22.0824818 102.193361,22.3472514 102.619263,22.4276516 C103.480627,22.5903109 104.240811,22.1366573 104.510228,21.2996588 C104.77367,20.4812499 104.654098,19.639604 104.678862,18.7712023 Z M222.677421,18.6926544 C221.998766,18.8336701 221.370967,18.9357804 220.759567,19.0991036 C220.157927,19.2597712 219.811429,19.7089766 219.710979,20.3068327 C219.651492,20.6613636 219.65282,21.0376046 219.696771,21.3954552 C219.767611,21.972066 220.165296,22.3671622 220.661241,22.434616 C221.555669,22.5563118 222.25849,22.1201192 222.524521,21.258423 C222.774286,20.4494417 222.647345,19.6190824 222.677421,18.6926544 Z M91.0940654,17.1717298 L91.0940654,22.453843 C91.7678734,22.4229046 92.4126019,22.4397016 93.043521,22.3545212 C94.2985208,22.1849572 94.9749845,21.5995163 95.166325,20.4684696 C95.254493,19.9474285 95.2143261,19.3892746 95.1428224,18.8600674 C95.0299567,18.0247951 94.4987578,17.4767327 93.6828718,17.3501904 C92.8385038,17.2191998 91.9727578,17.2263701 91.0940654,17.1717298 Z M210.842114,16.1054281 C210.278782,16.7568622 210.272209,17.5723498 210.254615,18.380468 L213.706711,18.380468 C213.632486,17.7896494 213.635075,17.2047397 213.475735,16.6678311 C213.14796,15.5635402 211.590812,15.2396157 210.842114,16.1054281 Z M91.0971858,12.2563637 L91.0971858,16.6813617 C91.8450204,16.6371449 92.5722073,16.6280493 93.2901657,16.5418066 C93.9718743,16.4598794 94.430972,16.0251474 94.562029,15.3620285 C94.6607532,14.8621663 94.6955424,14.3243946 94.6261632,13.8218769 C94.4814296,12.7736204 94.0014185,12.3480504 92.9368297,12.2648618 C92.3353221,12.2178566 91.7271754,12.2563637 91.0971858,12.2563637 Z" id="Bank-of-Montreal" fill="#FFFFFF"></path>
                <path d="M81.9641558,4.97551501 C83.0218399,4.97751077 83.8802828,5.83396201 83.8846799,6.89138052 C83.8889138,7.92536281 83.0047772,8.81089355 81.9620313,8.81689818 C80.9109863,8.82284403 80.008061,7.9167319 80.0247917,6.87292366 C80.0417879,5.81523958 80.9021563,4.97339449 81.9641558,4.97551501 Z M81.9605706,5.2363715 C81.102526,5.23059543 80.3888166,5.96774102 80.3848155,6.8639608 C80.3807833,7.76814757 81.0737785,8.49168289 81.9464292,8.49441262 C82.8187481,8.49712699 83.5229634,7.77591539 83.5249596,6.87777025 C83.5270133,5.98533478 82.8186817,5.24221395 81.9605706,5.2363715 Z M82.1401665,5.77430918 C82.540574,5.78274091 82.7724798,5.94692726 82.8361493,6.25551527 C82.9052629,6.59085908 82.7600646,6.82528771 82.3326356,7.01105132 C82.5320759,7.31240265 82.7277319,7.60797791 82.9233878,7.90355318 C82.8989557,7.94166194 82.8745236,7.9797707 82.8500915,8.01787946 C82.7179059,7.92360343 82.5669979,7.84672199 82.4584477,7.73027118 C82.3398059,7.60313133 82.2455299,7.44677918 82.1673206,7.28989591 C82.0429692,7.04052918 81.8592637,6.96663536 81.6014653,7.04723472 C81.3985727,7.31007894 81.7789963,7.76857912 81.2817235,8.01462627 L81.2817235,5.77318052 C81.572585,5.77318052 81.8564753,5.76840033 82.1401665,5.77430918 Z M81.5616303,6.01604088 L81.5616303,6.78585112 C81.8171051,6.75856418 82.0603638,6.76035676 82.2848337,6.69608972 C82.3874087,6.66674465 82.5215196,6.50428448 82.5172042,6.40768475 C82.512092,6.29349125 82.3922553,6.11835029 82.2878877,6.08827491 C82.0657415,6.02427344 81.8214206,6.03682144 81.5616303,6.01604088 Z" id="r" fill="#FFFFFF"></path>
                <text id="We’re-here-to-help.™" font-family="Sarabun-SemiBold, Sarabun" font-size="11.4" font-weight="500" fill="#FFFFFF">
                    <tspan x="87" y="46">We’re here to help.</tspan>
                    <tspan x="184.7664" y="46" font-size="9">™</tspan>
                </text>
            </g>
        </g>
    </g>
</svg>